<svg id="Capa_1" enable-background="new 0 0 512 512" height="512" viewBox="0 0 512 512" width="512" xmlns="http://www.w3.org/2000/svg"><g><g><g><g><g><g id="XMLID_96_"><circle cx="256" cy="256" fill="#ea285b" r="256"/></g></g></g></g></g><path d="m512 256c0-21.459-2.655-42.296-7.629-62.214l-55.078-55.078-11.655 13.831-38.82-38.82-114.823 119.615-224.207 10.761 118.632 118.632-28.444 64.103 84.238 84.238c7.183.606 14.446.932 21.786.932 141.385 0 256-114.615 256-256z" fill="#ba1347"/><g><path d="m81.04 166.88 174.96 117.018 26.207-73.129-26.207-10.703-142.817-86.348z" fill="#fff"/><path d="m430.96 166.88-32.142-53.162-142.818 86.348v83.832z" fill="#e0e0e0"/><g><path d="m62.707 138.707-22.597 37.375 215.89 130.529 22.63-37.207-22.63-13.83z" fill="#64f2dd"/></g><path d="m449.293 138.707-193.293 116.867v51.037l215.89-130.529z" fill="#45c4b8"/><g><g><g><path d="m149.976 426.83 106.024-64.103 37.877-47.017-37.877-11.292-131.841 79.712z" fill="#ffbf1f"/></g><path d="m452.212 244.095-25.817-42.7-170.395 103.023v58.309z" fill="#f99830"/><g><path d="m85.605 201.395-25.817 42.7 196.212 118.632 27.995-16.523-27.995-41.786z" fill="#ffe35a"/></g><path d="m256 362.727 106.024 64.103 25.817-42.7-131.841-79.712z" fill="#ffbf1f"/></g></g></g></g></svg>