<?xml version="1.0" encoding="UTF-8"?>
<svg id="Character_2" xmlns="http://www.w3.org/2000/svg" version="1.1" viewBox="0 0 500 480">
  <!-- Generator: Adobe Illustrator 29.2.1, SVG Export Plug-In . SVG Version: 2.1.0 Build 116)  -->
  <defs>
    <style>
      .st0, .st1, .st2, .st3, .st4, .st5, .st6, .st7 {
        stroke: #263238;
        stroke-linecap: round;
        stroke-linejoin: round;
        stroke-width: 2.5px;
      }

      .st0, .st8 {
        fill: #b5846b;
      }

      .st1 {
        fill: none;
      }

      .st2 {
        fill: #263238;
      }

      .st3, .st9 {
        fill: #fff;
      }

      .st4 {
        fill: #ec644e;
      }

      .st5, .st7 {
        fill: #9abae3;
      }

      .st6 {
        fill: #ea285b;
      }

      .st7 {
        display: none;
      }
    </style>
  </defs>
  <path class="st2" d="M498.13,179c-1.12,6.34-11.59,19.7-11.59,19.7l-6.37-15.02-2.67-6.8,20.63,2.12Z"/>
  <path class="st6" d="M298.79,68.53s99.28,15.64,119.69,35.58c16.6,16.22,20.26,36.22,18.41,65.69-1.84,29.46-11.05,65.69-11.05,71.51,0,3.41,20.65,30.9,24.4,62.44,4.16,34.97-4.12,65.86-4.12,65.86l-24.02-7.8-3.21-18.07c-4.31-33.36-38.66-56.08-71.04-47l-124.57,34.94s-7.37-95.62-14.73-132.44c-7.37-36.82-32.32-64.45-22.1-81.31,15.43-25.47,112.33-49.4,112.33-49.4Z"/>
  <polygon class="st7" points="287.98 151.4 305.68 180.28 339.49 182.07 317.5 207.82 326.25 240.54 294.96 227.58 266.54 246.01 269.2 212.25 242.89 190.92 275.82 183.01 287.98 151.4"/>
  <path class="st6" d="M389.94,157.27l18.41,44.74s5.32-.92,22.92,0c17.6.92,33.97-7.97,44.09-15.34,10.13-7.37,22.76-7.67,22.76-7.67,0,0-16.61-7.94-29.46-25.32-1.61-2.18-13.82-47.82-47.38-61.23-9.29-3.71-85.03-16.89-85.03-16.89"/>
  <path class="st6" d="M197.1,107.54s-25.37,16.95-24.45,49.73c.21,7.47.25,15.03-.71,22.45-1.6,12.31-7.86,25.42-14.02,36.1,0,0,25.09,13.24,38.9,13.24s15.23-3.69,15.23-3.69"/>
  <path class="st1" d="M206.14,176.59c0,30.03,3.23,42.34,5.91,48.78"/>
  <path class="st0" d="M246.65,391.33l30.96,8.85,33.86-.78,35.91,76.44-129.63-41.67.35-.93c5.99-16.07,15.79-30.45,28.55-41.91h0Z"/>
  <polygon class="st0" points="108.78 377.93 73.1 418.55 185.16 424.17 196.95 431.3 108.78 377.93"/>
  <path class="st5" d="M438.76,328.35c-6.38-16.18-36.83-36.61-50.64-35.44-10.74.91-97.02,26.03-97.02,26.03l-45.04-12.57s-101.36-54.99-137.96-58.61c-40.74-4.04-58.35,33.2-60.42,54.26s5.52,39.24,31.42,56.91c25.9,17.67,113.6,69.81,113.6,69.81l20.81,13.95s5.09-11.54,5.77-12.92c5.18-8.98,18.88-30.73,24.28-35.56,5.41-4.83,19.57-19.34,19.57-19.34l-8.29,16.44,71.04,36.39s54.72,19.72,87.14-6c51.58-40.91,33.97-72.48,25.75-93.37Z"/>
  <path class="st0" d="M480.18,183.68s12.96,22.97,19.47,72.66c1.92,14.63-2.9,39.59-41.55,30-39.53-9.81-97.16-34.95-97.16-34.95l5.62-55.37,84.15,5.98,29.46-18.33Z"/>
  <path class="st0" d="M306.39,211.44s-39.05-1.61-33.88,9.66c5.17,11.26,40.71,14.98,40.71,14.98l14.12-9.13-20.95-15.52Z"/>
  <line class="st1" x1="444.8" y1="201.59" x2="465.81" y2="205.16"/>
  <path class="st0" d="M378.89,244.37c-6.73,3.89-15.27,7.87-23.22,6.74-6.06-.86-11.44-4.23-17.48-5.34-5.74-1.05-12.08-1.87-17.31-4.63-23.58-12.43-11.57-27.2-15.33-26.19-26.57,7.16-20.33-13.36-13.69-22.15,4.7-6.22,10.27-10.74,15.31-12.07,8.75-2.3,31-3.18,43.17,2.94,5.94,2.98,27.16,21.82,27.16,21.82"/>
  <path class="st0" d="M356.66,206.65s-5.85,13.37-12.53,17.44c-9.16,5.58-16.33-2.47-16.79-1.97-.46.49-2.34,5.41-12.71,2.8-8.6-2.17-9.07-9.96-9.07-9.96"/>
  <path class="st0" d="M319.95,188.31s-13.56,10.39-13.51,28.23"/>
  <path class="st0" d="M327.34,222.12c2.91-17.15,12.79-25.86,12.79-25.86"/>
  <path class="st1" d="M295.4,215.2c7.99-17.51-.57-25.16-1.27-25.16"/>
  <path class="st0" d="M66.44,249.79"/>
  <path class="st0" d="M215.92,256.34l-3.87-30.96c-13.29,3.93-27.56,2.9-40.15-2.91l-4.06-1.37-3.26,10.12-65.6-5.15c-2.05-.85-21.9-6.1-24.25-7-25.32-9.67-39.71-18.09-41.99-7.5-1.82,8.44,17.13,25.08,17.13,25.08C49.87,236.65-.18,233.59,0,247.77c.08,6.43,7.95,9.54,19.43,10.74h0s-9.74,7.46-5.13,14.74c3.03,4.78,10.36,4.83,10.36,4.83,0,0-11.05,14.14,11.74,17.26,22.79,3.12,163.3,2.51,172.16-6.87,9.43-9.98,7.36-32.14,7.36-32.14Z"/>
  <line class="st1" x1="16.46" y1="258.13" x2="44.9" y2="257.58"/>
  <line class="st1" x1="24.66" y1="278.08" x2="50.21" y2="277.74"/>
  <polygon class="st4" points="422.95 265.89 263.13 364.52 263.13 372.12 213.19 390.08 188.88 394.22 188.52 393.83 182.79 394.22 45.6 262.49 45.6 256.11 56.18 255.81 56.18 243.01 118.11 233.6 257.6 337.12 357.37 276.13 405.13 257.16 416.02 262.49 422.95 265.89"/>
  <polygon class="st3" points="205.84 383.17 56.18 243.01 118.11 233.6 243.57 345.7 357.37 276.13 405.13 257.16 416.02 262.49 362.62 284.33 205.84 383.17"/>
  <polygon class="st4" points="422.95 265.89 263.13 364.52 263.13 374.88 205.84 394.22 188.88 394.22 188.52 393.83 199.93 377.93 205.84 383.17 364.89 282.9 416.02 262.49 422.95 265.89"/>
  <polyline class="st1" points="205.84 391.33 205.84 383.17 263.13 364.52"/>
  <line class="st1" x1="357.37" y1="276.13" x2="364.89" y2="282.9"/>
  <line class="st1" x1="199.93" y1="377.93" x2="243.57" y2="345.7"/>
  <polygon class="st3" points="192.68 388.03 56.18 258.09 56.18 243.01 199.93 377.93 192.68 388.03"/>
  <path class="st2" d="M317.48,93.67c-7.98,13.82-20.48,21.55-27.92,17.26-7.44-4.29-7-18.98.98-32.81,7.98-13.82,20.48-21.55,27.92-17.26,7.44,4.29,7,18.98-.98,32.81Z"/>
  <path class="st8" d="M323.24,30.87c9.51,18.45,9.65,42.63-4.9,58.66-14.53,15.7-37.7,15.78-54.3,3.2-17.66-13.38-25.85-38.15-19.2-59.35,3.49-11.13,11.87-22.67,23.41-26.4v-.04c21.63-8.05,44.66,4.11,54.99,23.93Z"/>
  <path class="st9" d="M276.79,88.91c-17.66-13.38-25.85-38.15-19.2-59.35,3.08-9.83,9.99-19.97,19.51-24.78-2.95.38-5.9,1.07-8.84,2.16v.04c-11.55,3.73-19.93,15.26-23.42,26.4-6.65,21.21,1.53,45.97,19.19,59.35,12.91,9.78,29.79,11.87,43.5,4.94-10.55,1.21-21.64-1.85-30.75-8.76Z"/>
  <path class="st1" d="M323.24,30.87c9.51,18.45,9.65,42.63-4.9,58.66-14.53,15.7-37.7,15.78-54.3,3.2-17.66-13.38-25.85-38.15-19.2-59.35,3.49-11.13,11.87-22.67,23.41-26.4v-.04c21.63-8.05,44.66,4.11,54.99,23.93Z"/>
  <path class="st2" d="M323.24,30.87c.56,1.08,1.14,2.21,1.63,3.34,1.16,2.52,2.09,5.08,2.86,7.64-6.74,5.21-15.25,8.61-24.61,9.64-1.21.12-2.34.2-3.54.28-1.76.05-3.52.04-5.31-.01-.41-.05-.83-.06-1.25-.11-.58-.02-1.13-.08-1.72-.16-.89-.1-1.76-.17-2.58-.27-1.98-.33-3.96-.72-5.88-1.18-15.28-3.98-27.59-13.92-33.77-26.22,1.02-1.83,2.21-3.54,3.49-5.14.5-.64.98-1.23,1.5-1.78.44-.51.91-1.03,1.36-1.42.34-.35.68-.71,1.05-1.05,1.43-1.33,3.02-2.57,4.64-3.69.13-.11.3-.2.43-.31.62-.42,1.23-.8,1.88-1.17.74-.43,1.5-.83,2.27-1.21.84-.42,1.67-.77,2.55-1.05v-.04c.17-.06.34-.15.54-.24.16-.06.33-.09.5-.19,3.85-1.41,7.83-2.14,11.8-2.28.53-.02,1.02,0,1.56-.07.05.03.09.04.16.06.06,0,.16,0,.29,0,.54.04,1.06.06,1.59.04.44.04.92.11,1.35.12l1.21.1c.51.06.97.14,1.48.24.96.18,1.97.37,2.96.6,3.65.9,7.21,2.27,10.6,4.12.54.27,1.09.62,1.62.98.34.15.69.37,1.05.61.41.21.85.53,1.34.83,1.06.73,2.12,1.46,3.08,2.31.83.61,1.62,1.27,2.4,2.01.77.67,1.49,1.38,2.21,2.12.28.26.53.53.79.82.03.05.14.14.22.22,1.44,1.56,2.83,3.19,4.09,4.96.38.49.71.96,1.09,1.51,1.08,1.61,2.14,3.27,3.07,5.06Z"/>
  <path class="st1" d="M307.54,123.05c8.93-2.82,26.76-17.04,28.08-28.97"/>
</svg>