<svg id="Icons_Layers" viewBox="0 0 512 512" xmlns="http://www.w3.org/2000/svg" data-name="Icons Layers"><path id="_16" d="m352.14 0c98.17 0 159.86 61.24 159.86 160.08v65.75a19.36 19.36 0 0 1 -19.59 19.36v-.45a19.59 19.59 0 0 1 -19.59-19.59v-65.07c0-78.08-42.82-120.9-120.68-120.9h-192.06c-77.9 0-120.9 43-120.9 120.9v192.06c0 77.68 43 120.68 120.9 120.68h192.06c77.9 0 120.68-43 120.68-120.68a19.59 19.59 0 1 1 39.18 0c0 98.62-61.24 159.86-159.86 159.86h-192.06c-98.84 0-160.08-61.24-160.08-159.86v-192.06c0-98.84 61.24-160.08 160.08-160.08zm-94.34 298.1a19.36 19.36 0 0 1 18.91 20.27v24.76l-.34 3.08a19.6 19.6 0 0 1 -38.83-4.43v-24.78a19.59 19.59 0 0 1 20.26-18.9zm-.9-148.37a19.35 19.35 0 0 1 6.34 1.06 19.59 19.59 0 0 1 13.92 18.75v61.22h66.66a19.71 19.71 0 0 1 1.13 39.4h-174.51a20 20 0 0 1 -5.28-.83 19.77 19.77 0 0 1 -15-19 19.36 19.36 0 0 1 19.36-19.59h67.55v-61.42a20 20 0 0 1 19.83-19.59z" fill="rgb(0,0,0)" data-name="16"/></svg>