<svg id="Icons_Layers" viewBox="0 0 512 512" xmlns="http://www.w3.org/2000/svg" data-name="Icons Layers"><path id="_7" d="m351.92 0c98.39 0 160.08 61.24 160.08 160.08v59.45l-.18 2.65a19.59 19.59 0 0 1 -19.41 16.93h-.22l-3.1-.24a19.38 19.38 0 0 1 -16.27-19.57v-59.22c0-77.9-43-120.9-120.9-120.9h-191.84c-78.12 0-120.9 43-120.9 120.9v192.06c0 77.9 43 120.68 120.9 120.68h191.84c78.12 0 120.9-43 120.9-120.68a19.59 19.59 0 1 1 39.18 0c0 98.62-61.24 159.86-159.86 159.86h-192.06c-98.84 0-160.08-61.24-160.08-159.86v-192.06c0-98.84 61.24-160.08 160.08-160.08zm-204.67 193.41a19.57 19.57 0 0 1 18.91 20.26v163.69a19.6 19.6 0 1 1 -39.16-1.36v-163.91l.35-3.06a19.33 19.33 0 0 1 19.91-15.62zm109.65-76.78a19.59 19.59 0 0 1 19.59 19.59v240a19.59 19.59 0 0 1 -39.18 0v-240a19.59 19.59 0 0 1 19.59-19.59zm108.52 163.24a19.59 19.59 0 0 1 19.58 19.58v76.55a19.59 19.59 0 1 1 -39.17 0v-76.55a19.58 19.58 0 0 1 19.59-19.58z" fill="rgb(0,0,0)" data-name="7"/></svg>